<svg width="200" height="55" viewBox="0 0 200 55" fill="none" xmlns="http://www.w3.org/2000/svg">
<g clip-path="url(#clip0_607_1859)">
<path d="M24.6308 0.00494194H26.4093C32.5838 0.118032 38.6577 2.21021 43.0201 5.91392C41.4093 7.29928 39.765 8.6281 38.1879 10.0135C35.7382 8.14746 32.7852 6.70556 29.5637 6.19665C24.7986 5.34847 19.6644 6.11183 15.6711 8.40192C11.3087 10.8051 8.35564 14.8763 7.71806 19.2303C7.01336 23.5278 8.45632 28.0514 11.7785 31.3876C14.9664 34.6389 19.8322 36.6746 24.8657 36.8159C29.5637 37.0421 34.463 35.8264 37.8858 33.0557C40.5704 31.1048 41.812 28.1362 42.2147 25.2524C36.6442 25.2524 31.0738 25.2807 25.5033 25.2524V19.4282H48.9597C50.1677 25.6765 48.4228 32.7164 42.7852 37.1835C39.0268 40.35 33.8254 42.216 28.5234 42.5835C23.3892 43.0076 18.0872 42.1877 13.5234 40.0955C8.05363 37.6358 3.69121 33.4797 1.54356 28.5886C-0.46986 24.0932 -0.503417 19.0042 1.37578 14.4805C3.08719 10.3527 6.37578 6.70556 10.604 4.16102C14.6644 1.64475 19.5973 0.259396 24.6308 0.00494194Z" fill="#3780FF"/>
<path d="M159.195 1.47504H166.376V41.8484C163.993 41.8484 161.577 41.8766 159.195 41.8201C159.228 28.3906 159.195 14.9328 159.195 1.47504V1.47504Z" fill="#38B137"/>
<path d="M64.9329 15.47C69.3624 14.7632 74.1611 15.5548 77.8188 17.7883C81.1409 19.7674 83.4564 22.8774 84.1611 26.2701C85.0671 30.2 83.9262 34.4975 80.906 37.6075C77.651 41.085 72.3154 42.951 67.1141 42.6683C62.349 42.4421 57.7181 40.4347 54.8993 37.1551C51.7114 33.5362 50.9396 28.5602 52.6846 24.3193C54.4295 19.7674 59.3624 16.2899 64.9329 15.47M65.9396 20.8418C64.1275 21.2376 62.4497 22.1141 61.2416 23.3581C57.9866 26.6377 58.1879 31.9812 61.7785 35.0347C63.8255 36.7876 66.9127 37.6075 69.7651 37.1268C72.4161 36.731 74.7315 35.2326 76.0067 33.2535C78.2215 29.889 77.5839 25.2523 74.1946 22.623C72.0134 20.9266 68.8255 20.2198 65.9396 20.8418Z" fill="#FA3913"/>
<path d="M100.503 15.47C105.57 14.6501 111.107 15.8375 114.899 18.8344C121.074 23.4994 121.745 32.2357 116.477 37.6075C113.289 41.0002 108.121 42.8662 103.02 42.6683C98.1544 42.5552 93.3557 40.5195 90.4698 37.1551C87.2148 33.4514 86.5101 28.3623 88.3557 24.0366C90.2013 19.6261 95.0336 16.2616 100.503 15.47M101.51 20.8418C99.698 21.2376 98.0201 22.1141 96.8121 23.3298C93.5906 26.5529 93.7248 31.8116 97.1812 34.8933C99.2282 36.731 102.416 37.6357 105.369 37.1268C107.987 36.7027 110.336 35.2326 111.611 33.2535C113.792 29.8608 113.154 25.2241 109.732 22.5947C107.55 20.8983 104.362 20.2198 101.51 20.8418Z" fill="#FCBD06"/>
<path d="M130.671 17.1098C134.53 15.0742 139.664 14.5087 143.826 16.2616C145.134 16.7423 146.208 17.5622 147.248 18.3821C147.282 17.6187 147.248 16.8271 147.282 16.0354C149.53 16.0637 151.779 16.0354 154.06 16.0637V41.0002C154.027 44.7605 152.886 48.7469 149.664 51.4893C146.141 54.5145 140.738 55.4475 135.872 54.8255C130.671 54.1752 126.141 50.9804 124.128 46.9374C126.141 46.1175 128.255 45.4673 130.336 44.7039C131.51 47.0223 133.893 49.0013 136.879 49.4537C139.866 49.9061 143.322 49.2841 145.268 47.1919C147.349 45.0432 147.349 42.1028 147.248 39.4735C145.705 40.7457 143.926 41.8766 141.779 42.3007C137.114 43.4034 131.98 42.0463 128.389 39.3887C124.765 36.731 122.617 32.6315 122.819 28.5602C122.919 23.9518 126.007 19.513 130.671 17.1098M137.617 20.7287C135.57 21.0114 133.658 21.9727 132.349 23.3015C129.195 26.4681 129.195 31.5289 132.383 34.6388C134.195 36.4766 137.114 37.4944 139.933 37.2399C142.584 37.0137 145.034 35.6001 146.342 33.6493C148.557 30.3414 148.188 25.8461 145.201 22.9622C143.356 21.1811 140.403 20.3046 137.617 20.7287V20.7287Z" fill="#3780FF"/>
<path d="M175 18.5517C179.027 15.3852 185.235 14.3108 190.403 15.9789C195.302 17.5339 198.423 21.4638 200 25.5068C192.718 28.0513 185.47 30.5676 178.188 33.1121C179.195 34.7237 180.738 36.1938 182.819 36.7876C185.738 37.664 189.228 37.353 191.678 35.7132C192.651 35.0912 193.423 34.2713 194.161 33.4797C196.007 34.5257 197.852 35.5436 199.698 36.5896C197.081 39.8975 192.685 42.2159 187.953 42.5835C182.718 43.1206 177.148 41.4243 173.758 37.975C168.188 32.5467 168.725 23.4429 175 18.5517M178.591 23.7821C177.45 25.1675 176.98 26.8639 177.013 28.532C181.879 26.8356 186.745 25.1392 191.611 23.4146C190.805 21.8313 188.859 20.8701 186.879 20.6156C183.691 20.135 180.369 21.5769 178.591 23.7821V23.7821Z" fill="#FA3913"/>
</g>
<defs>
<clipPath id="clip0_607_1859">
<rect width="200" height="55" fill="white"/>
</clipPath>
</defs>
</svg>
